<?xml version="1.0" encoding="UTF-8" standalone="no"?>
<!DOCTYPE svg PUBLIC "-//W3C//DTD SVG 1.1//EN"
 "http://www.w3.org/Graphics/SVG/1.1/DTD/svg11.dtd">
<!-- Generated by graphviz version 2.38.0 (20140413.2041)
 -->
<!-- Title: snakemake_dag Pages: 1 -->
<svg width="690pt" height="620pt"
 viewBox="0.00 0.00 689.50 620.00" xmlns="http://www.w3.org/2000/svg" xmlns:xlink="http://www.w3.org/1999/xlink">
<g id="graph0" class="graph" transform="scale(1 1) rotate(0) translate(4 616)">
<title>snakemake_dag</title>
<polygon fill="white" stroke="none" points="-4,4 -4,-616 685.5,-616 685.5,4 -4,4"/>
<!-- 0 -->
<g id="node1" class="node"><title>0</title>
<path fill="none" stroke="#56a2d8" stroke-width="2" d="M210.5,-36C210.5,-36 180.5,-36 180.5,-36 174.5,-36 168.5,-30 168.5,-24 168.5,-24 168.5,-12 168.5,-12 168.5,-6 174.5,-0 180.5,-0 180.5,-0 210.5,-0 210.5,-0 216.5,-0 222.5,-6 222.5,-12 222.5,-12 222.5,-24 222.5,-24 222.5,-30 216.5,-36 210.5,-36"/>
<text text-anchor="middle" x="195.5" y="-15.5" font-family="sans" font-size="10.00">all</text>
</g>
<!-- 1 -->
<g id="node2" class="node"><title>1</title>
<path fill="none" stroke="#d85656" stroke-width="2" d="M151,-108C151,-108 12,-108 12,-108 6,-108 0,-102 0,-96 0,-96 0,-84 0,-84 0,-78 6,-72 12,-72 12,-72 151,-72 151,-72 157,-72 163,-78 163,-84 163,-84 163,-96 163,-96 163,-102 157,-108 151,-108"/>
<text text-anchor="middle" x="81.5" y="-87.5" font-family="sans" font-size="10.00">index_sorted_bams_with_dups</text>
</g>
<!-- 1&#45;&gt;0 -->
<g id="edge3" class="edge"><title>1&#45;&gt;0</title>
<path fill="none" stroke="grey" stroke-width="2" d="M109.388,-71.8761C124.516,-62.587 143.383,-51.0015 159.599,-41.0447"/>
<polygon fill="grey" stroke="grey" stroke-width="2" points="161.603,-43.9209 168.294,-35.7056 157.941,-37.9557 161.603,-43.9209"/>
</g>
<!-- 2 -->
<g id="node3" class="node"><title>2</title>
<path fill="none" stroke="#56d8c9" stroke-width="2" d="M273,-180C273,-180 118,-180 118,-180 112,-180 106,-174 106,-168 106,-168 106,-156 106,-156 106,-150 112,-144 118,-144 118,-144 273,-144 273,-144 279,-144 285,-150 285,-156 285,-156 285,-168 285,-168 285,-174 279,-180 273,-180"/>
<text text-anchor="middle" x="195.5" y="-159.5" font-family="sans" font-size="10.00">index_sorted_bams_without_dups</text>
</g>
<!-- 2&#45;&gt;0 -->
<g id="edge1" class="edge"><title>2&#45;&gt;0</title>
<path fill="none" stroke="grey" stroke-width="2" d="M195.5,-143.871C195.5,-119.67 195.5,-75.2108 195.5,-46.3932"/>
<polygon fill="grey" stroke="grey" stroke-width="2" points="199,-46.1892 195.5,-36.1893 192,-46.1893 199,-46.1892"/>
</g>
<!-- 3 -->
<g id="node4" class="node"><title>3</title>
<path fill="none" stroke="#c6d856" stroke-width="2" d="M489.5,-108C489.5,-108 459.5,-108 459.5,-108 453.5,-108 447.5,-102 447.5,-96 447.5,-96 447.5,-84 447.5,-84 447.5,-78 453.5,-72 459.5,-72 459.5,-72 489.5,-72 489.5,-72 495.5,-72 501.5,-78 501.5,-84 501.5,-84 501.5,-96 501.5,-96 501.5,-102 495.5,-108 489.5,-108"/>
<text text-anchor="middle" x="474.5" y="-87.5" font-family="sans" font-size="10.00">multiqc</text>
</g>
<!-- 3&#45;&gt;0 -->
<g id="edge2" class="edge"><title>3&#45;&gt;0</title>
<path fill="none" stroke="grey" stroke-width="2" d="M447.495,-82.2245C397.286,-69.6272 289.506,-42.5857 232.54,-28.2932"/>
<polygon fill="grey" stroke="grey" stroke-width="2" points="233.071,-24.8181 222.52,-25.7792 231.368,-31.6076 233.071,-24.8181"/>
</g>
<!-- 4 -->
<g id="node5" class="node"><title>4</title>
<path fill="none" stroke="#567bd8" stroke-width="2" d="M427.5,-324C427.5,-324 397.5,-324 397.5,-324 391.5,-324 385.5,-318 385.5,-312 385.5,-312 385.5,-300 385.5,-300 385.5,-294 391.5,-288 397.5,-288 397.5,-288 427.5,-288 427.5,-288 433.5,-288 439.5,-294 439.5,-300 439.5,-300 439.5,-312 439.5,-312 439.5,-318 433.5,-324 427.5,-324"/>
<text text-anchor="middle" x="412.5" y="-303.5" font-family="sans" font-size="10.00">STAR</text>
</g>
<!-- 4&#45;&gt;1 -->
<g id="edge4" class="edge"><title>4&#45;&gt;1</title>
<path fill="none" stroke="grey" stroke-width="2" d="M385.115,-303.506C321.971,-298.433 166.244,-276.272 96.5,-180 83.6068,-162.203 80.3387,-137.192 80.0192,-118.215"/>
<polygon fill="grey" stroke="grey" stroke-width="2" points="83.52,-118.139 80.1118,-108.108 76.5203,-118.075 83.52,-118.139"/>
</g>
<!-- 4&#45;&gt;3 -->
<g id="edge12" class="edge"><title>4&#45;&gt;3</title>
<path fill="none" stroke="grey" stroke-width="2" d="M417.469,-287.849C428.216,-250.753 453.695,-162.81 466.648,-118.103"/>
<polygon fill="grey" stroke="grey" stroke-width="2" points="470.086,-118.811 469.507,-108.232 463.363,-116.863 470.086,-118.811"/>
</g>
<!-- 5 -->
<g id="node6" class="node"><title>5</title>
<path fill="none" stroke="#56d8a2" stroke-width="2" d="M372.5,-252C372.5,-252 254.5,-252 254.5,-252 248.5,-252 242.5,-246 242.5,-240 242.5,-240 242.5,-228 242.5,-228 242.5,-222 248.5,-216 254.5,-216 254.5,-216 372.5,-216 372.5,-216 378.5,-216 384.5,-222 384.5,-228 384.5,-228 384.5,-240 384.5,-240 384.5,-246 378.5,-252 372.5,-252"/>
<text text-anchor="middle" x="313.5" y="-231.5" font-family="sans" font-size="10.00">remove_duplicates_picard</text>
</g>
<!-- 4&#45;&gt;5 -->
<g id="edge15" class="edge"><title>4&#45;&gt;5</title>
<path fill="none" stroke="grey" stroke-width="2" d="M388.282,-287.876C375.577,-278.893 359.836,-267.763 346.077,-258.034"/>
<polygon fill="grey" stroke="grey" stroke-width="2" points="347.997,-255.105 337.811,-252.19 343.956,-260.821 347.997,-255.105"/>
</g>
<!-- 10 -->
<g id="node11" class="node"><title>10</title>
<path fill="none" stroke="#d87d56" stroke-width="2" d="M415,-180C415,-180 354,-180 354,-180 348,-180 342,-174 342,-168 342,-168 342,-156 342,-156 342,-150 348,-144 354,-144 354,-144 415,-144 415,-144 421,-144 427,-150 427,-156 427,-156 427,-168 427,-168 427,-174 421,-180 415,-180"/>
<text text-anchor="middle" x="384.5" y="-159.5" font-family="sans" font-size="10.00">featureCounts</text>
</g>
<!-- 4&#45;&gt;10 -->
<g id="edge21" class="edge"><title>4&#45;&gt;10</title>
<path fill="none" stroke="grey" stroke-width="2" d="M409.123,-287.871C404.329,-263.564 395.507,-218.819 389.827,-190.013"/>
<polygon fill="grey" stroke="grey" stroke-width="2" points="393.258,-189.323 387.889,-180.189 386.39,-190.677 393.258,-189.323"/>
</g>
<!-- 5&#45;&gt;2 -->
<g id="edge5" class="edge"><title>5&#45;&gt;2</title>
<path fill="none" stroke="grey" stroke-width="2" d="M284.634,-215.876C269.205,-206.724 250.019,-195.342 233.403,-185.485"/>
<polygon fill="grey" stroke="grey" stroke-width="2" points="234.863,-182.282 224.477,-180.19 231.292,-188.302 234.863,-182.282"/>
</g>
<!-- 5&#45;&gt;3 -->
<g id="edge10" class="edge"><title>5&#45;&gt;3</title>
<path fill="none" stroke="grey" stroke-width="2" d="M312.545,-215.804C312.395,-196.145 315.159,-164.096 332.5,-144 358.949,-113.35 404.894,-100.398 437.349,-94.9412"/>
<polygon fill="grey" stroke="grey" stroke-width="2" points="438.009,-98.3812 447.37,-93.4201 436.958,-91.4605 438.009,-98.3812"/>
</g>
<!-- 5&#45;&gt;10 -->
<g id="edge20" class="edge"><title>5&#45;&gt;10</title>
<path fill="none" stroke="grey" stroke-width="2" d="M331.051,-215.697C339.734,-207.135 350.363,-196.656 359.848,-187.304"/>
<polygon fill="grey" stroke="grey" stroke-width="2" points="362.488,-189.617 367.151,-180.104 357.573,-184.633 362.488,-189.617"/>
</g>
<!-- 6 -->
<g id="node7" class="node"><title>6</title>
<path fill="none" stroke="#78d856" stroke-width="2" d="M620.5,-252C620.5,-252 590.5,-252 590.5,-252 584.5,-252 578.5,-246 578.5,-240 578.5,-240 578.5,-228 578.5,-228 578.5,-222 584.5,-216 590.5,-216 590.5,-216 620.5,-216 620.5,-216 626.5,-216 632.5,-222 632.5,-228 632.5,-228 632.5,-240 632.5,-240 632.5,-246 626.5,-252 620.5,-252"/>
<text text-anchor="middle" x="605.5" y="-231.5" font-family="sans" font-size="10.00">fastqc</text>
</g>
<!-- 6&#45;&gt;3 -->
<g id="edge8" class="edge"><title>6&#45;&gt;3</title>
<path fill="none" stroke="grey" stroke-width="2" d="M596.187,-215.695C585.506,-196.796 566.713,-166.258 545.5,-144 534.996,-132.979 522.002,-122.558 510.012,-113.919"/>
<polygon fill="grey" stroke="grey" stroke-width="2" points="511.708,-110.834 501.51,-107.962 507.691,-116.567 511.708,-110.834"/>
</g>
<!-- 7 -->
<g id="node8" class="node"><title>7</title>
<path fill="none" stroke="#d8c356" stroke-width="2" d="M643.5,-468C643.5,-468 613.5,-468 613.5,-468 607.5,-468 601.5,-462 601.5,-456 601.5,-456 601.5,-444 601.5,-444 601.5,-438 607.5,-432 613.5,-432 613.5,-432 643.5,-432 643.5,-432 649.5,-432 655.5,-438 655.5,-444 655.5,-444 655.5,-456 655.5,-456 655.5,-462 649.5,-468 643.5,-468"/>
<text text-anchor="middle" x="628.5" y="-447.5" font-family="sans" font-size="10.00">bbduk</text>
</g>
<!-- 7&#45;&gt;3 -->
<g id="edge7" class="edge"><title>7&#45;&gt;3</title>
<path fill="none" stroke="grey" stroke-width="2" d="M636.19,-431.907C647.294,-405.623 666.5,-353.447 666.5,-307 666.5,-307 666.5,-307 666.5,-233 666.5,-156.696 567.264,-116.713 511.479,-100.264"/>
<polygon fill="grey" stroke="grey" stroke-width="2" points="512.177,-96.8243 501.602,-97.4633 510.267,-103.559 512.177,-96.8243"/>
</g>
<!-- 7&#45;&gt;6 -->
<g id="edge16" class="edge"><title>7&#45;&gt;6</title>
<path fill="none" stroke="grey" stroke-width="2" d="M626.657,-431.849C622.678,-394.832 613.258,-307.181 608.443,-262.386"/>
<polygon fill="grey" stroke="grey" stroke-width="2" points="611.901,-261.801 607.352,-252.232 604.941,-262.549 611.901,-261.801"/>
</g>
<!-- 8 -->
<g id="node9" class="node"><title>8</title>
<path fill="none" stroke="#56c9d8" stroke-width="2" d="M564,-396C564,-396 509,-396 509,-396 503,-396 497,-390 497,-384 497,-384 497,-372 497,-372 497,-366 503,-360 509,-360 509,-360 564,-360 564,-360 570,-360 576,-366 576,-372 576,-372 576,-384 576,-384 576,-390 570,-396 564,-396"/>
<text text-anchor="middle" x="536.5" y="-375.5" font-family="sans" font-size="10.00">trimmomatic</text>
</g>
<!-- 7&#45;&gt;8 -->
<g id="edge18" class="edge"><title>7&#45;&gt;8</title>
<path fill="none" stroke="grey" stroke-width="2" d="M605.758,-431.697C594.06,-422.796 579.639,-411.823 566.99,-402.199"/>
<polygon fill="grey" stroke="grey" stroke-width="2" points="569.058,-399.374 558.98,-396.104 564.819,-404.945 569.058,-399.374"/>
</g>
<!-- 8&#45;&gt;3 -->
<g id="edge11" class="edge"><title>8&#45;&gt;3</title>
<path fill="none" stroke="grey" stroke-width="2" d="M521.024,-359.653C513.211,-349.874 504.378,-337.032 499.5,-324 473.017,-253.249 471.799,-162.548 473.128,-118.062"/>
<polygon fill="grey" stroke="grey" stroke-width="2" points="476.627,-118.16 473.496,-108.038 469.632,-117.903 476.627,-118.16"/>
</g>
<!-- 8&#45;&gt;4 -->
<g id="edge13" class="edge"><title>8&#45;&gt;4</title>
<path fill="none" stroke="grey" stroke-width="2" d="M506.166,-359.876C488.747,-350.042 466.768,-337.635 448.48,-327.311"/>
<polygon fill="grey" stroke="grey" stroke-width="2" points="449.995,-324.147 439.566,-322.279 446.554,-330.243 449.995,-324.147"/>
</g>
<!-- 9 -->
<g id="node10" class="node"><title>9</title>
<path fill="none" stroke="#56d87b" stroke-width="2" d="M588.5,-324C588.5,-324 520.5,-324 520.5,-324 514.5,-324 508.5,-318 508.5,-312 508.5,-312 508.5,-300 508.5,-300 508.5,-294 514.5,-288 520.5,-288 520.5,-288 588.5,-288 588.5,-288 594.5,-288 600.5,-294 600.5,-300 600.5,-300 600.5,-312 600.5,-312 600.5,-318 594.5,-324 588.5,-324"/>
<text text-anchor="middle" x="554.5" y="-303.5" font-family="sans" font-size="10.00">trimmed_fastqc</text>
</g>
<!-- 8&#45;&gt;9 -->
<g id="edge19" class="edge"><title>8&#45;&gt;9</title>
<path fill="none" stroke="grey" stroke-width="2" d="M540.949,-359.697C542.955,-351.898 545.369,-342.509 547.601,-333.829"/>
<polygon fill="grey" stroke="grey" stroke-width="2" points="551.001,-334.661 550.102,-324.104 544.222,-332.918 551.001,-334.661"/>
</g>
<!-- 9&#45;&gt;3 -->
<g id="edge9" class="edge"><title>9&#45;&gt;3</title>
<path fill="none" stroke="grey" stroke-width="2" d="M551.043,-287.534C544.718,-257.377 529.845,-193.974 507.5,-144 503.297,-134.6 497.669,-124.877 492.252,-116.367"/>
<polygon fill="grey" stroke="grey" stroke-width="2" points="495.17,-114.434 486.753,-108.001 489.321,-118.28 495.17,-114.434"/>
</g>
<!-- 10&#45;&gt;3 -->
<g id="edge6" class="edge"><title>10&#45;&gt;3</title>
<path fill="none" stroke="grey" stroke-width="2" d="M406.747,-143.697C418.082,-134.881 432.03,-124.032 444.319,-114.474"/>
<polygon fill="grey" stroke="grey" stroke-width="2" points="446.764,-117.007 452.509,-108.104 442.466,-111.481 446.764,-117.007"/>
</g>
<!-- 11 -->
<g id="node12" class="node"><title>11</title>
<path fill="none" stroke="#d8a456" stroke-width="2" d="M436,-396C436,-396 389,-396 389,-396 383,-396 377,-390 377,-384 377,-384 377,-372 377,-372 377,-366 383,-360 389,-360 389,-360 436,-360 436,-360 442,-360 448,-366 448,-372 448,-372 448,-384 448,-384 448,-390 442,-396 436,-396"/>
<text text-anchor="middle" x="412.5" y="-375.5" font-family="sans" font-size="10.00">STAR_index</text>
</g>
<!-- 11&#45;&gt;4 -->
<g id="edge14" class="edge"><title>11&#45;&gt;4</title>
<path fill="none" stroke="grey" stroke-width="2" d="M412.5,-359.697C412.5,-351.983 412.5,-342.712 412.5,-334.112"/>
<polygon fill="grey" stroke="grey" stroke-width="2" points="416,-334.104 412.5,-324.104 409,-334.104 416,-334.104"/>
</g>
<!-- 12 -->
<g id="node13" class="node"><title>12</title>
<path fill="none" stroke="#59d856" stroke-width="2" d="M669.5,-540C669.5,-540 587.5,-540 587.5,-540 581.5,-540 575.5,-534 575.5,-528 575.5,-528 575.5,-516 575.5,-516 575.5,-510 581.5,-504 587.5,-504 587.5,-504 669.5,-504 669.5,-504 675.5,-504 681.5,-510 681.5,-516 681.5,-516 681.5,-528 681.5,-528 681.5,-534 675.5,-540 669.5,-540"/>
<text text-anchor="middle" x="628.5" y="-519.5" font-family="sans" font-size="10.00">create_rRNA_fasta</text>
</g>
<!-- 12&#45;&gt;7 -->
<g id="edge17" class="edge"><title>12&#45;&gt;7</title>
<path fill="none" stroke="grey" stroke-width="2" d="M628.5,-503.697C628.5,-495.983 628.5,-486.712 628.5,-478.112"/>
<polygon fill="grey" stroke="grey" stroke-width="2" points="632,-478.104 628.5,-468.104 625,-478.104 632,-478.104"/>
</g>
<!-- 13 -->
<g id="node14" class="node"><title>13</title>
<path fill="none" stroke="#9fd856" stroke-width="2" d="M664,-612C664,-612 593,-612 593,-612 587,-612 581,-606 581,-600 581,-600 581,-588 581,-588 581,-582 587,-576 593,-576 593,-576 664,-576 664,-576 670,-576 676,-582 676,-588 676,-588 676,-600 676,-600 676,-606 670,-612 664,-612"/>
<text text-anchor="middle" x="628.5" y="-591.5" font-family="sans" font-size="10.00">create_rRNA_gtf</text>
</g>
<!-- 13&#45;&gt;12 -->
<g id="edge22" class="edge"><title>13&#45;&gt;12</title>
<path fill="none" stroke="grey" stroke-width="2" d="M628.5,-575.697C628.5,-567.983 628.5,-558.712 628.5,-550.112"/>
<polygon fill="grey" stroke="grey" stroke-width="2" points="632,-550.104 628.5,-540.104 625,-550.104 632,-550.104"/>
</g>
</g>
</svg>
